<svg width="141" height="48" viewBox="0 0 141 48" fill="none" xmlns="http://www.w3.org/2000/svg">
<path d="M37.513 6.5489C33.2876 3.66241 30.0117 9.76573 31.0567 15.931L31.6577 16.5271C35.0641 14.3756 41.8526 9.5134 37.513 6.5489Z" fill="#E71A64"/>
<path d="M27.6646 5.8872C23.3323 7.67248 28.2769 13.2879 31.6489 16.5324L32.8012 15.0842C33.945 10.834 30.8437 4.57715 27.6646 5.8872Z" fill="#E71A64"/>
<path d="M16.8242 9.47626C13.0528 8.67056 6.70829 11.071 5.48986 13.6016C4.27143 16.1323 2.70878 21.4425 5.39195 28.8143C8.07512 36.186 14.2485 48.9675 22.8958 43.7906C31.5431 38.6137 31.3061 28.0665 28.623 20.6947C25.9399 13.3229 20.5956 10.282 16.8242 9.47626Z" fill="#B98351"/>
<path d="M14.1799 22.8809C15.5443 23.5081 17.1708 22.9161 17.8129 21.5586" stroke="black" stroke-linecap="round"/>
<ellipse cx="9.62045" cy="20.3476" rx="2.05033" ry="2.02808" transform="rotate(-20 9.62045 20.3476)" fill="black"/>
<ellipse cx="19.896" cy="16.6069" rx="2.05033" ry="2.02808" transform="rotate(-20 19.896 16.6069)" fill="black"/>
<path d="M49.8882 23.6965H53.0321C52.9867 20.9313 50.714 19.0222 47.2594 19.0222C43.8579 19.0222 41.3655 20.901 41.3806 23.7192C41.373 26.0071 42.9867 27.3177 45.6079 27.9465L47.2973 28.3707C48.9867 28.7798 49.9261 29.2647 49.9337 30.3101C49.9261 31.4465 48.8503 32.2192 47.1837 32.2192C45.4791 32.2192 44.2518 31.4313 44.1458 29.8783H40.9715C41.0549 33.2344 43.4564 34.9692 47.2215 34.9692C51.0094 34.9692 53.2367 33.1586 53.2443 30.3177C53.2367 27.7344 51.2897 26.3631 48.5927 25.7571L47.1988 25.4238C45.8503 25.1131 44.7215 24.6131 44.7443 23.4995C44.7443 22.4995 45.6306 21.7647 47.2367 21.7647C48.8049 21.7647 49.767 22.4768 49.8882 23.6965ZM55.6034 39.1131H58.8307V32.8859H58.9292C59.3762 33.8556 60.3534 34.9389 62.2322 34.9389C64.8837 34.9389 66.9519 32.8404 66.9519 28.9465C66.9519 24.9465 64.7928 22.9616 62.2398 22.9616C60.2928 22.9616 59.361 24.1207 58.9292 25.0677H58.7852V23.1131H55.6034V39.1131ZM58.7625 28.9313C58.7625 26.8556 59.6413 25.5298 61.2095 25.5298C62.808 25.5298 63.6565 26.9162 63.6565 28.9313C63.6565 30.9616 62.7928 32.3707 61.2095 32.3707C59.6565 32.3707 58.7625 31.0071 58.7625 28.9313ZM76.7789 29.795C76.7865 31.3556 75.7183 32.1738 74.5592 32.1738C73.3395 32.1738 72.5516 31.3177 72.544 29.9465V23.1131H69.3168V30.5222C69.3243 33.2419 70.9152 34.901 73.2562 34.901C75.0062 34.901 76.2637 33.9995 76.7865 32.6359H76.9077V34.7495H80.0062V23.1131H76.7789V29.795ZM87.0888 34.9389C88.9676 34.9389 89.9449 33.8556 90.3918 32.8859H90.5282V34.7495H93.71V19.2344H90.4903V25.0677H90.3918C89.96 24.1207 89.0282 22.9616 87.0812 22.9616C84.5282 22.9616 82.3691 24.9465 82.3691 28.9465C82.3691 32.8404 84.4373 34.9389 87.0888 34.9389ZM88.1115 32.3707C86.5282 32.3707 85.6646 30.9616 85.6646 28.9313C85.6646 26.9162 86.513 25.5298 88.1115 25.5298C89.6797 25.5298 90.5585 26.8556 90.5585 28.9313C90.5585 31.0071 89.6646 32.3707 88.1115 32.3707ZM100.865 34.9389C102.743 34.9389 103.721 33.8556 104.168 32.8859H104.304V34.7495H107.486V19.2344H104.266V25.0677H104.168C103.736 24.1207 102.804 22.9616 100.857 22.9616C98.304 22.9616 96.1449 24.9465 96.1449 28.9465C96.1449 32.8404 98.2131 34.9389 100.865 34.9389ZM101.887 32.3707C100.304 32.3707 99.4404 30.9616 99.4404 28.9313C99.4404 26.9162 100.289 25.5298 101.887 25.5298C103.456 25.5298 104.334 26.8556 104.334 28.9313C104.334 31.0071 103.44 32.3707 101.887 32.3707ZM110.353 34.7495H113.58V23.1131H110.353V34.7495ZM111.974 21.6131C112.936 21.6131 113.724 20.8783 113.724 19.9768C113.724 19.0828 112.936 18.348 111.974 18.348C111.019 18.348 110.231 19.0828 110.231 19.9768C110.231 20.8783 111.019 21.6131 111.974 21.6131ZM121.681 34.9768C124.56 34.9768 126.5 33.5753 126.954 31.4162L123.969 31.2192C123.644 32.1056 122.81 32.5677 121.734 32.5677C120.121 32.5677 119.098 31.4995 119.098 29.7647V29.7571H127.022V28.8707C127.022 24.9162 124.628 22.9616 121.553 22.9616C118.128 22.9616 115.909 25.3935 115.909 28.9844C115.909 32.6738 118.098 34.9768 121.681 34.9768ZM119.098 27.7571C119.166 26.4313 120.174 25.3707 121.606 25.3707C123.007 25.3707 123.977 26.3707 123.984 27.7571H119.098ZM139.024 26.4313C138.736 24.2874 137.008 22.9616 134.069 22.9616C131.092 22.9616 129.13 24.3404 129.137 26.5828C129.13 28.3253 130.228 29.4541 132.501 29.9086L134.516 30.3101C135.531 30.5147 135.993 30.8859 136.008 31.4692C135.993 32.1586 135.243 32.651 134.114 32.651C132.963 32.651 132.198 32.1586 132.001 31.2116L128.827 31.3783C129.13 33.6056 131.024 34.9768 134.107 34.9768C137.122 34.9768 139.281 33.4389 139.289 31.1435C139.281 29.4616 138.183 28.4541 135.925 27.9919L133.819 27.5677C132.736 27.3328 132.334 26.9616 132.342 26.401C132.334 25.7041 133.122 25.2495 134.122 25.2495C135.243 25.2495 135.91 25.8631 136.069 26.6131L139.024 26.4313Z" fill="#39AEA9"/>
</svg>
